<svg width="187" height="40" fill="none" xmlns="http://www.w3.org/2000/svg"><path d="M50.52 34V6h5.8v28h-5.8Zm10.538 0V13.16h5.48v1.72c1.574-1.413 3.52-2.12 5.84-2.12 1.627 0 3.054.36 4.28 1.08a7.325 7.325 0 0 1 2.92 2.92c.694 1.227 1.04 2.667 1.04 4.32V34h-5.48V21.88c0-1.36-.386-2.427-1.16-3.2-.773-.8-1.826-1.2-3.16-1.2-.933 0-1.76.187-2.48.56-.72.347-1.32.853-1.8 1.52V34h-5.48Zm31.511.4c-1.92 0-3.693-.24-5.32-.72-1.626-.507-3.04-1.227-4.24-2.16l2.72-3.64c1.2.8 2.347 1.4 3.44 1.8 1.12.4 2.227.6 3.32.6 1.227 0 2.2-.2 2.92-.6.747-.427 1.12-.973 1.12-1.64 0-.533-.213-.96-.64-1.28-.4-.32-1.053-.547-1.96-.68l-4-.6c-2.08-.32-3.653-.987-4.72-2-1.066-1.04-1.6-2.4-1.6-4.08 0-1.36.347-2.52 1.04-3.48.72-.987 1.72-1.747 3-2.28 1.307-.56 2.854-.84 4.64-.84 1.52 0 3 .213 4.44.64a14.26 14.26 0 0 1 4.12 1.96l-2.64 3.56c-1.146-.72-2.24-1.24-3.28-1.56a10.69 10.69 0 0 0-3.16-.48c-.986 0-1.786.187-2.4.56-.586.373-.88.867-.88 1.48 0 .56.214 1 .64 1.32.427.32 1.16.547 2.2.68l4 .6c2.054.293 3.627.96 4.72 2 1.094 1.013 1.64 2.333 1.64 3.96 0 1.333-.4 2.52-1.2 3.56-.8 1.013-1.88 1.827-3.24 2.44-1.36.587-2.92.88-4.68.88Zm19.929 0c-1.6 0-3.027-.347-4.28-1.04a7.973 7.973 0 0 1-2.92-2.96c-.694-1.253-1.04-2.693-1.04-4.32V13.16h5.48v12.12c0 1.333.386 2.4 1.16 3.2.8.8 1.866 1.2 3.2 1.2.906 0 1.72-.173 2.44-.52a4.975 4.975 0 0 0 1.84-1.56V13.16h5.48V34h-5.48v-1.68c-1.6 1.387-3.56 2.08-5.88 2.08Zm15.631-.4V13.16h5.48v2.32c.666-.907 1.466-1.6 2.4-2.08.933-.48 1.986-.72 3.16-.72 1.013.027 1.773.187 2.28.48v4.8a5.08 5.08 0 0 0-1.32-.4 6.805 6.805 0 0 0-1.48-.16c-1.067 0-2.04.267-2.92.8-.88.533-1.587 1.293-2.12 2.28V34h-5.48Zm22.382.36c-1.493 0-2.813-.267-3.96-.8-1.147-.56-2.04-1.32-2.68-2.28-.64-.96-.96-2.067-.96-3.32 0-2 .747-3.547 2.24-4.64 1.52-1.12 3.6-1.68 6.24-1.68 1.813 0 3.52.28 5.12.84v-1.52c0-1.2-.373-2.107-1.12-2.72-.747-.613-1.84-.92-3.28-.92-.88 0-1.827.147-2.84.44-1.013.267-2.187.693-3.52 1.28l-2-4.04c1.653-.747 3.227-1.307 4.72-1.68 1.52-.373 3.04-.56 4.56-.56 2.8 0 4.973.68 6.52 2.04 1.573 1.333 2.36 3.227 2.36 5.68V34h-5.4v-1.48a8.701 8.701 0 0 1-2.76 1.4c-.987.293-2.067.44-3.24.44Zm-2.4-6.52c0 .8.347 1.44 1.04 1.92.693.453 1.613.68 2.76.68a9.46 9.46 0 0 0 2.52-.32 6.92 6.92 0 0 0 2.08-1.04v-3.04a10.961 10.961 0 0 0-2.08-.6 12.77 12.77 0 0 0-2.32-.2c-1.253 0-2.24.24-2.96.72-.693.453-1.04 1.08-1.04 1.88ZM163.818 34l8-10.6-7.8-10.24h6.36l4.6 6.2 4.56-6.2h6.16l-7.68 10.16 8.16 10.68h-6.4l-4.92-6.64-4.92 6.64h-6.12Z" fill="#121212"/><path d="M19 1.989c.235 0 .469.004.702.012V.677A.69.69 0 0 0 19 0a.69.69 0 0 0-.701.677v1.324c.233-.008.467-.012.701-.012ZM6.794 17.704c2.677 0 4.993.962 6.103 2.36 1.11-1.398 3.426-2.36 6.103-2.36 2.678 0 4.994.962 6.104 2.36 1.11-1.398 3.425-2.36 6.103-2.36 2.762 0 5.14 1.023 6.205 2.493C37.41 10.38 29.168 2.422 19 2.422 8.833 2.422.59 10.379.59 20.197c1.065-1.47 3.443-2.493 6.205-2.493Z" fill="#0162CA"/><path d="M23.495 27.562c.406 0 .791-.083 1.14-.233h1.674V24.82c-.013-1.49-1.268-2.694-2.814-2.694-1.547 0-2.801 1.204-2.815 2.694v2.51h1.675c.348.149.734.232 1.14.232Zm-13.821 8.23V31.88c0-.123.1-.228.227-.233a.231.231 0 0 1 .243.227v4.196l.06.035a17.606 17.606 0 0 0 4.376 1.759v-.655c0-1.022.773-1.868 1.785-2.026a2.24 2.24 0 0 1 .34-.026h.933c.078 0 .155.016.227.045h.001c.36.148.742.222 1.134.222.392 0 .774-.074 1.134-.221a.602.602 0 0 1 .228-.046h.933c.116 0 .23.01.34.026 1.012.158 1.785 1.005 1.785 2.026v.655a17.646 17.646 0 0 0 3.7-1.395l-.72-3.056a.209.209 0 0 1 .163-.25.216.216 0 0 1 .258.158l.692 2.94a17.498 17.498 0 0 0 2.624-1.75l-.703-3.468c-.274-1.352-1.5-2.326-2.925-2.326h-.94a.913.913 0 0 0-.347.069h-.001a4.543 4.543 0 0 1-1.726.337 4.544 4.544 0 0 1-1.726-.337h-.002a.912.912 0 0 0-.346-.07h-.94c-.103 0-.205.006-.306.016a3.565 3.565 0 0 0-2.095-.667h-1.546a.996.996 0 0 0-.377.075h-.002a4.949 4.949 0 0 1-1.879.367 4.95 4.95 0 0 1-1.878-.366l-.002-.001a.995.995 0 0 0-.377-.075h-1.547c-.191 0-.38.015-.563.043-1.677.26-2.959 1.665-2.959 3.358v2.252a17.23 17.23 0 0 0 2.724 2.073ZM19 30.829c1.021 0 1.849.799 1.849 1.785 0 .986-.828 1.785-1.849 1.785-1.02 0-1.849-.8-1.849-1.785 0-.986.828-1.785 1.85-1.785Z" fill="#000"/><path d="M16.36 37.32a.141.141 0 0 0-.137.14v.74a14.134 14.134 0 0 0 .284.041v-.785a.14.14 0 0 0-.147-.136Zm5.27 0a.141.141 0 0 0-.137.14v.781a17.598 17.598 0 0 0 .284-.042v-.743a.14.14 0 0 0-.147-.136Zm-6.866-10.553c1.67-.259 2.807-1.777 2.539-3.39-.269-1.614-1.841-2.712-3.512-2.452-1.67.259-2.808 1.777-2.539 3.39.269 1.614 1.84 2.712 3.512 2.452Z" fill="#000"/><path d="M19 40h-.125l-.153-.002a19.859 19.859 0 0 1-4.285-.53 19.282 19.282 0 0 1-5.066-1.994 19.086 19.086 0 0 1-2.812-1.95A18.621 18.621 0 0 1 1.766 29.4 17.66 17.66 0 0 1 0 22.24a.588.588 0 0 1 .598-.597c.321 0 .587.245.597.555.16 4.788 2.38 9.3 6.147 12.452a17.893 17.893 0 0 0 3.09 2.077 18.064 18.064 0 0 0 6.155 1.961 18.622 18.622 0 0 0 6.69-.343 18.106 18.106 0 0 0 4.192-1.565c.884-.462 1.733-1 2.526-1.602 4.182-3.172 6.643-7.877 6.81-12.979a.588.588 0 0 1 .597-.556c.339 0 .609.27.598.598a17.823 17.823 0 0 1-.504 3.659 17.857 17.857 0 0 1-1.464 3.903 18.677 18.677 0 0 1-5.299 6.283 19.147 19.147 0 0 1-3.102 1.916 19.326 19.326 0 0 1-6.058 1.83c-.847.11-1.713.167-2.573.167Z" fill="#0162CA"/></svg>